<svg xmlns="http://www.w3.org/2000/svg" xmlns:xlink="http://www.w3.org/1999/xlink" width="500" zoomAndPan="magnify" viewBox="0 0 375 374.999991" height="500" preserveAspectRatio="xMidYMid meet" version="1.0"><defs><clipPath id="c2c4cc4663"><path d="M 112.5 125 L 262 125 L 262 250.875 L 112.5 250.875 Z M 112.5 125 " clip-rule="nonzero"/></clipPath></defs><g clip-path="url(#c2c4cc4663)"><path fill="#ffffff" d="M 261.367188 156.71875 C 261.164062 153.191406 262.457031 149.246094 260.113281 146.179688 C 256.007812 145.046875 251.914062 143.90625 247.796875 142.894531 C 247.582031 137.792969 247.984375 132.679688 247.609375 127.589844 C 247.015625 124.117188 242.792969 125.328125 240.339844 125.300781 C 219.097656 126.363281 199.527344 138.386719 187.035156 155.277344 C 173.597656 136.972656 151.578125 124.359375 128.519531 125.300781 C 128.058594 125.691406 127.132812 126.46875 126.660156 126.859375 C 125.960938 132.152344 126.621094 137.550781 126.335938 142.878906 C 121.667969 144.765625 114.761719 144.46875 112.542969 149.855469 C 113.417969 151.980469 113.617188 154.28125 113.523438 156.570312 C 113.320312 183.570312 113.710938 210.5625 113.335938 237.550781 C 112.984375 239.585938 113.359375 243.179688 116.28125 242.546875 C 125.71875 239.113281 135.878906 237.875 145.894531 238.457031 C 159.503906 239.519531 173.640625 242.710938 184.824219 250.867188 C 185.914062 250.867188 188.082031 250.867188 189.15625 250.878906 C 195.351562 246.125 202.859375 243.542969 210.277344 241.402344 C 226.175781 236.949219 243.339844 237.363281 258.964844 242.707031 C 262.300781 242.144531 261.402344 238.480469 261.429688 236.058594 C 261.285156 209.621094 261.40625 183.167969 261.367188 156.71875 Z M 119.203125 235.234375 C 119.285156 207.355469 119.191406 179.464844 119.246094 151.589844 C 121.628906 150.742188 124.023438 149.894531 126.417969 149.058594 C 126.367188 171.324219 126.378906 193.589844 126.40625 215.851562 C 126.097656 219.902344 131.160156 219.191406 133.796875 219.445312 C 149.546875 220.105469 163.882812 228.113281 175.324219 238.519531 C 157.660156 231.386719 137.550781 229.769531 119.203125 235.234375 Z M 196.09375 239.949219 C 204.828125 231.398438 214.898438 223.726562 226.867188 220.429688 C 233.03125 218.339844 239.558594 218.140625 245.964844 217.535156 C 248.039062 217.277344 247.609375 214.695312 247.753906 213.238281 C 247.742188 191.945312 247.730469 170.648438 247.742188 149.355469 C 250.3125 150.132812 252.886719 150.914062 255.46875 151.667969 C 255.832031 179.546875 255.480469 207.4375 255.644531 235.316406 C 236.058594 229.890625 214.671875 231.828125 196.09375 239.949219 Z M 196.09375 239.949219 " fill-opacity="1" fill-rule="nonzero"/></g></svg>